<?xml version="1.0" encoding="utf-8"?>
<!-- Generator: Adobe Illustrator 24.1.2, SVG Export Plug-In . SVG Version: 6.00 Build 0)  -->
<svg version="1.1" id="Ebene_1" xmlns="http://www.w3.org/2000/svg" xmlns:xlink="http://www.w3.org/1999/xlink" x="0px" y="0px"
	 viewBox="0 0 2000 2000" style="enable-background:new 0 0 2000 2000;" xml:space="preserve">
<style type="text/css">
	.st0{opacity:0.8;}
	.st1{fill:#CE6375;}
</style>
<g class="st0">
	<path class="st1" d="M539.41,714.28c20-53.77,47.09-108.43,95.05-139.92c30.96-20.33,67.96-29.15,104.49-35.26
		c213.71-35.78,440.31,12.12,621.25,131.33c86.93,57.27,168.67,140.9,175.16,244.8c4.65,74.46-30.13,144.87-60.05,213.22
		c-39.88,91.12-74.62,188.63-146.3,257.58c-52.61,50.61-122.01,81.82-193.76,95.3s-145.87,9.97-217.81-2.4
		c-146.54-25.2-294.54-94.45-370.81-222.09c-30.09-50.36-47.55-107.22-61.35-164.23c-15.98-65.98-27.39-135.49-10.87-201.34
		c15.88-63.33,56.64-119.09,66.84-183.58"/>
	<g>
		<path class="st1" d="M546.64,716.27c16.91-45.31,38.6-91.48,75.93-123.62c40.19-34.61,95.52-43.87,146.48-50.52
			c103.49-13.52,209.36-7.69,310.91,16.24c101.15,23.84,198.59,65.45,284.58,123.99c75.49,51.4,151.25,126.28,162.3,221.59
			c6.45,55.62-10.8,109.78-31.81,160.56c-10.58,25.57-22.2,50.69-33.13,76.1c-9.9,23.03-19.55,46.17-29.72,69.08
			c-20.55,46.32-43.29,92.33-74.26,132.69c-31.04,40.44-70.63,72.73-116.13,95.65c-101.46,51.09-219.84,52.33-329.52,32.4
			c-92.42-16.79-183.74-50.33-259.14-107.32c-36.76-27.78-69.25-61.64-94.12-100.49c-29.82-46.57-47.83-99.27-61.63-152.5
			c-14.62-56.37-27.07-114.82-22.7-173.38c2.1-28.11,9.07-55.16,19.28-81.37c9.57-24.57,21.31-48.23,31.6-72.49
			c10.02-23.62,18.77-47.78,22.91-73.19c0.66-4.03-1.05-8.02-5.24-9.23c-3.57-1.03-8.58,1.25-9.23,5.24
			c-8.83,54.22-38.27,101.57-57.09,152.47c-10.07,27.25-16.03,55.53-17.63,84.56c-1.66,30.22,1.15,60.51,5.99,90.33
			c4.8,29.49,11.65,58.68,19.33,87.54c7.39,27.75,15.96,55.24,26.85,81.83c19.63,47.97,47.05,91.69,83.19,128.95
			c67.46,69.55,157.74,113.82,250.34,139.16c52.73,14.43,107.37,23.3,161.97,26.08c58.63,2.99,118.19-1.97,174.6-18.8
			c50.44-15.05,98.29-39.38,138.46-73.59c39.61-33.72,69.72-76.98,94.09-122.6c24.7-46.23,44.03-95.03,64.87-143.05
			c22.74-52.39,48.83-104.58,59.45-161.15c9.58-50.96,3.68-101.76-18.4-148.73c-20.85-44.33-53.67-82.48-90.18-114.7
			c-38.59-34.05-82.14-62.34-127.29-86.87c-47.21-25.64-96.88-46.87-147.97-63.48c-102.13-33.2-210.56-47.95-317.84-42.62
			c-26.89,1.33-53.7,3.97-80.36,7.79c-26.96,3.86-54.1,8.56-79.95,17.33c-25.17,8.54-48.49,21.19-68.19,39.15
			c-18.46,16.82-33.36,37.42-45.57,59.12c-12.18,21.64-21.84,44.61-30.52,67.85C528.79,721.34,543.29,725.25,546.64,716.27
			L546.64,716.27z"/>
	</g>
</g>
</svg>
